<svg width="800" height="800" viewBox="0 0 800 800" fill="none" xmlns="http://www.w3.org/2000/svg">
<g clip-path="url(#clip0_410_1320)">
<path d="M375.046 196.185V197.139C375.046 216.339 371.692 234.769 365.569 251.877L365.938 250.739C359.508 268.462 349.138 283.446 335.785 295.108L335.662 295.2C322.708 306.862 305.477 313.969 286.585 313.969C286.092 313.969 285.6 313.969 285.108 313.969H285.169C259.231 313.785 235.785 303.262 218.708 286.308C199.508 268.646 184.431 246.862 174.8 222.339L174.4 221.169C165.569 199.692 160.308 174.8 159.969 148.708V148.585C159.969 148.308 159.969 147.969 159.969 147.631C159.969 128.431 163.323 110 169.446 92.8924L169.077 94.0308C175.508 76.3077 185.877 61.3231 199.231 49.6616L199.354 49.5693C212.308 37.9077 229.569 30.7693 248.462 30.7693C249.015 30.7693 249.569 30.7693 250.123 30.8001H250.031C275.969 30.9539 299.446 41.477 316.492 58.4616C335.477 76.0924 350.462 97.8154 360.062 122.185L360.462 123.354C369.354 144.892 374.615 169.908 374.892 196.092V196.185H375.046ZM210.585 428.431C210.615 429.2 210.615 430.092 210.615 431.015C210.615 455.077 203.046 477.354 190.154 495.631L190.4 495.262C178.308 512.523 158.492 523.692 136.092 523.692C135.077 523.692 134.062 523.662 133.046 523.631H133.2C106.954 523.292 83.1077 513.231 65.0769 496.862L65.1692 496.954C26.2769 463.446 1.38462 414.585 0.0307692 359.908V359.662C0 358.923 0 358.031 0 357.139C0 332.985 7.56923 310.585 20.4615 292.215L20.2154 292.585C32.2462 275.169 52.0923 263.908 74.5846 263.908C75.5692 263.908 76.5846 263.939 77.5692 263.969H77.4154C103.662 264.308 127.508 274.369 145.538 290.739L145.446 290.646C184.4 324.339 209.262 373.385 210.585 428.277V428.492V428.431ZM400.154 415.446C446.954 418.123 489.262 435.323 523.169 462.554L522.738 462.215C566.4 493.385 602.985 531.2 631.877 574.585L632.862 576.154C658.215 610.092 674.431 652.185 677.138 697.908L677.169 698.523C677.2 699.323 677.231 700.277 677.231 701.2C677.231 713.631 674.185 725.385 668.8 735.692L668.985 735.292C663.692 744.862 655.692 752.339 645.969 756.8L645.661 756.923C636.708 761.2 626.277 764.554 615.385 766.431L614.646 766.523C604.308 768.215 592.431 769.169 580.308 769.169C579.538 769.169 578.769 769.169 578 769.169H578.123C545.077 766.892 514.4 759.138 486.185 746.831L487.969 747.538C462.277 736.154 432.462 728.431 401.2 725.969L400.246 725.908C366.308 728.431 334.862 736.062 305.631 748.031L307.692 747.292C279.354 758.892 246.492 766.554 212.154 768.646L211.292 768.677C152.503 768.718 123.108 745.344 123.108 698.554C124.585 664.431 134.4 632.892 150.554 605.569L150.031 606.492C169.015 571.139 191.292 540.708 217.231 513.815L217.108 513.939C243.108 486.831 272.738 463.508 305.354 444.739L307.262 443.723C333.692 427.108 365.508 416.739 399.662 415.385H400.031L400.154 415.446ZM515.077 314C514.646 314 514.154 314 513.662 314C494.769 314 477.538 306.862 464.523 295.169L464.585 295.231C451.108 283.446 440.708 268.492 434.554 251.477L434.308 250.739C428.523 234.769 425.169 216.339 425.169 197.139C425.169 196.8 425.169 196.462 425.169 196.123V196.185C425.446 169.877 430.708 144.892 440.092 122L439.6 123.354C449.631 97.7847 464.585 76.0924 483.477 58.5539L483.6 58.4616C500.646 41.5077 524.123 30.9847 550.031 30.8308H550.062H551.477C570.369 30.8308 587.6 37.9693 600.615 49.6616L600.554 49.6001C614.031 61.3847 624.431 76.3385 630.585 93.3539L630.831 94.0924C636.708 110.154 640.092 128.708 640.092 148.031V148.646V148.615C639.785 174.831 634.492 199.754 625.169 222.554L625.662 221.2C615.631 246.892 600.554 268.677 581.477 286.215L581.354 286.339C564.277 303.231 540.831 313.754 514.923 313.908H514.892L515.077 314ZM722.769 264.031C723.631 264 724.615 263.969 725.6 263.969C748.092 263.969 767.938 275.231 779.815 292.431L779.969 292.646C792.615 310.677 800.185 333.046 800.185 357.231C800.185 358.123 800.185 358.985 800.154 359.877V359.754C798.8 414.677 773.908 463.539 735.262 496.8L735.015 497.015C717.077 513.292 693.231 523.354 667.046 523.692H666.985C666.123 523.723 665.108 523.754 664.092 523.754C641.692 523.754 621.877 512.615 609.938 495.538L609.785 495.323C597.138 477.415 589.569 455.108 589.569 431.077C589.569 430.185 589.569 429.262 589.6 428.369V428.492C590.923 373.385 615.785 324.338 654.492 290.831L654.738 290.615C672.677 274.4 696.461 264.339 722.585 264H722.646L722.769 264.031Z" fill="white"/>
</g>
<defs>
<clipPath id="clip0_410_1320">
<rect width="800" height="800" fill="white"/>
</clipPath>
</defs>
</svg>
